<?xml version="1.0" encoding="UTF-8" standalone="no"?>
<!-- Created with Inkscape (http://www.inkscape.org/) -->

<svg
   xmlns:dc="http://purl.org/dc/elements/1.1/"
   xmlns:cc="http://creativecommons.org/ns#"
   xmlns:rdf="http://www.w3.org/1999/02/22-rdf-syntax-ns#"
   xmlns:svg="http://www.w3.org/2000/svg"
   xmlns="http://www.w3.org/2000/svg"
   xmlns:xlink="http://www.w3.org/1999/xlink"
   width="297mm"
   height="210mm"
   viewBox="0 0 297 210"
   version="1.1"
   id="svg8">
   <style>
     .room {
      fill
     }
   </style>
  <g
     id="layer1"
     transform="translate(0,-87)">
    <image
       y="81.805557"
       x="-0.86304307"
       id="image4566"
       xlink:href="./ILC-2.png"
       preserveAspectRatio="none"
       height="220.17111"
       width="303.67868" />
    <path
       style="fill:gray;stroke:#000000;stroke-width:0.26458332px;stroke-linecap:butt;stroke-linejoin:miter;stroke-opacity:1"
       d="m 103.84896,214.5823 -4.365628,-27.64896 15.345838,-2.77813 22.22499,-1.98437 19.97605,-2.64584 7.54062,35.45417 z"
       id="path836"
        />
    <path
       style="fill:gray;stroke:#000000;stroke-width:0.26458332px;stroke-linecap:butt;stroke-linejoin:miter;stroke-opacity:1"
       d="m 157.03021,179.525 10.58333,-1.85208 8.33437,-1.45521 12.17084,-1.32291 0.13229,0.79375 25.4,-3.43959 0.79375,4.10104 -3.175,0.66146 v 0.92604 l 1.5875,1.05834 1.98437,0.39687 v 31.75 l 1.45521,0.26459 1.05834,0.66145 0.66145,1.05834 0.26459,0.79375 -3.70417,0.13229 v 1.05833 l -50.00625,-0.13229 z"
       id="path838"
        />
    <path
       style="fill:gray;stroke:#000000;stroke-width:0.26458332px;stroke-linecap:butt;stroke-linejoin:miter;stroke-opacity:1"
       d="m 214.57708,215.11146 h 16.80104 l -0.52916,-13.22916 h -15.74271 l -0.26459,9.26041 1.45521,0.26459 1.05834,0.66145 0.92604,1.85209 -3.70417,0.13229 z"
       id="path840"
        />
    <path
       style="fill:gray;stroke:#000000;stroke-width:0.26458332px;stroke-linecap:butt;stroke-linejoin:miter;stroke-opacity:1"
       d="m 237.86041,205.18959 -0.13229,-12.96459 16.00729,0.1323 v 12.96458 z"
       id="path842"
        />
    <path
       style="fill:gray;stroke:#000000;stroke-width:0.26458332px;stroke-linecap:butt;stroke-linejoin:miter;stroke-opacity:1"
       d="m 237.72812,192.225 0.13229,-9.525 16.13959,0.1323 -0.26459,9.525 z"
       id="path844"
        />
    <path
       style="fill:gray;stroke:#000000;stroke-width:0.26458332px;stroke-linecap:butt;stroke-linejoin:miter;stroke-opacity:1"
       d="m 237.86041,182.7 0.1323,-14.55208 15.61041,-2.24896 L 254,182.8323 Z"
       id="path846"
        />
    <path
       style="fill:gray;stroke:#000000;stroke-width:0.26458332px;stroke-linecap:butt;stroke-linejoin:miter;stroke-opacity:1"
       d="m 239.31562,158.75521 -1.5875,-9.65729 0.13229,-9.92187 16.40417,-0.26459 L 254,156.63855 Z"
       id="path848"
        />
    <path
       style="fill:gray;stroke:#000000;stroke-width:0.26458332px;stroke-linecap:butt;stroke-linejoin:miter;stroke-opacity:1"
       d="m 237.86041,139.17605 -0.13229,-12.30313 16.53646,0.39688 v 11.64166 z"
       id="path850"
        />
    <path
       style="fill:gray;stroke:#000000;stroke-width:0.26458332px;stroke-linecap:butt;stroke-linejoin:miter;stroke-opacity:1"
       d="m 60.192708,221.32917 v -20.37292 l -2.38125,-0.52916 -1.190625,-2.24896 -1.190625,2.24896 -1.719792,0.39687 -0.132292,-3.30729 h -1.190625 l 0.264584,-11.1125 -1.984375,-0.79375 -1.322917,-1.98437 3.175,-0.1323 -0.132292,-11.1125 H 24.209375 v 3.3073 l -5.291667,0.13229 0.529167,36.64479 18.25625,-2.51354 0.926041,4.89479 h -3.836458 v 46.96354 l 3.042708,21.16667 h 35.057291 l -0.79375,-43.12709 -0.79375,-0.13229 -0.132291,3.43959 -1.190625,-0.52917 -1.322917,-1.32292 -0.396875,-1.19062 h -9.525 v 12.83229 h 3.175 l -0.529166,1.5875 -1.852084,1.19062 h -0.926041 l 0.264583,12.03855 1.455208,0.66145 1.455209,0.92605 v 0.92604 l -3.439584,0.52916 -0.396875,1.85209 -0.926041,1.45521 -1.322917,0.79375 -1.058333,-3.3073 h -0.79375 l -1.058334,3.43959 -1.984375,-1.5875 -0.529166,-3.04271 -3.571875,-0.13229 0.264583,-1.32292 3.042708,-1.45521 2.116667,-0.26458 v -5.68854 h -1.984375 l -0.132292,-15.47813 -1.719791,-0.52916 -1.5875,-2.51355 h 3.307291 l -0.264583,-1.32291 2.645833,-9.26042 0.264584,-5.68854 -2.513542,-1.32292 -0.79375,-1.5875 3.307292,-0.26458 v -0.66146 z"
       id="path852"
        />
    <path
       style="fill:gray;stroke:#000000;stroke-width:0.26458332px;stroke-linecap:butt;stroke-linejoin:miter;stroke-opacity:1"
       d="m 65.748958,222.12292 17.859374,-0.13229 -0.132291,10.05417 -17.727083,0.13229 -0.132292,-7.27604 1.852083,-0.26459 1.190625,-1.85208 v -0.66146 z"
       id="path854"
        />
    <path
       style="fill:gray;stroke:#000000;stroke-width:0.26458332px;stroke-linecap:butt;stroke-linejoin:miter;stroke-opacity:1"
       d="m 161.13125,139.44063 0.13229,-11.37708 14.94896,0.26458 v 10.98021 z"
       id="path856"
        />
    <path
       style="fill:gray;stroke:#000000;stroke-width:0.26458332px;stroke-linecap:butt;stroke-linejoin:miter;stroke-opacity:1"
       d="m 161.13125,139.44063 v 11.77396 l 14.94896,-0.13229 0.13229,-11.77396 z"
       id="path858"
        />
    <path
       style="fill:gray;stroke:#000000;stroke-width:0.26458332px;stroke-linecap:butt;stroke-linejoin:miter;stroke-opacity:1"
       d="m 176.2125,128.32813 13.49375,-0.26458 0.13229,23.28333 -13.75833,-0.26458 z"
       id="path860"
        />
    <path
       style="fill:gray;stroke:#000000;stroke-width:0.26458332px;stroke-linecap:butt;stroke-linejoin:miter;stroke-opacity:1"
       d="m 189.97083,146.84896 17.06563,-0.13229 v -8.86354 l -17.06563,0.26458 z"
       id="path862"
        />
    <path
       style="fill:gray;stroke:#000000;stroke-width:0.26458332px;stroke-linecap:butt;stroke-linejoin:miter;stroke-opacity:1"
       d="m 189.97083,146.84896 -0.39687,18.38854 17.4625,-2.64583 v -15.875 z"
       id="path864"
        />
    <path
       style="fill:gray;stroke:#000000;stroke-width:0.26458332px;stroke-linecap:butt;stroke-linejoin:miter;stroke-opacity:1"
       d="m 207.03646,162.59167 11.24479,-1.32291 v -13.09688 l -11.37709,0.13229 z"
       id="path866"
        />
    <path
       style="fill:gray;stroke:#000000;stroke-width:0.26458332px;stroke-linecap:butt;stroke-linejoin:miter;stroke-opacity:1"
       d="m 218.28125,161.26876 12.03854,-1.32292 1.05833,-7.80521 v -3.83646 l -13.09687,-0.13229 z"
       id="path868"
        />
    <path
       style="fill:gray;stroke:#000000;stroke-width:0.26458332px;stroke-linecap:butt;stroke-linejoin:miter;stroke-opacity:1"
       d="M 231.37812,148.30417 V 135.73646 H 219.075 l 0.13229,12.7 z"
       id="path870"
        />
    <path
       style="fill:gray;stroke:#000000;stroke-width:0.26458332px;stroke-linecap:butt;stroke-linejoin:miter;stroke-opacity:1"
       d="m 219.20729,148.43646 -12.30313,-0.13229 -0.26458,-12.96458 12.43542,0.39687 z"
       id="path872"
        />
    <path
       style="fill:gray;stroke:#000000;stroke-width:0.26458332px;stroke-linecap:butt;stroke-linejoin:miter;stroke-opacity:1"
       d="m 95.911457,149.23021 -3.042708,3.175 -1.984375,4.36563 -0.132292,5.29167 1.322917,4.23333 2.645833,3.96875 3.571875,2.64583 4.233333,1.71979 5.42396,1.45521 3.04271,0.79375 7.67291,0.39688 7.9375,-0.92605 6.87917,-1.85208 4.89479,-2.24896 -0.79375,-1.32291 -0.26458,-0.39688 2.11666,-1.19062 1.19063,0.92604 1.5875,0.26458 1.85208,-0.26458 -1.71979,-2.77813 1.71979,1.45521 2.64584,-1.98437 2.64583,-3.30729 1.71979,-3.57188 0.52917,-5.15937 -1.45521,-5.42396 -3.30729,-4.10104 -4.7625,-2.91042 -6.21771,-1.85208 -5.42396,-0.92605 -6.08541,-0.52916 -5.42396,0.13229 -4.49792,1.05833 -5.42396,1.32292 -7.80521,3.30729 1.32292,2.11667 -0.79375,0.39687 -1.984375,-2.24896 -0.926041,0.92605 -0.132292,2.11666 0.661458,0.79375 -1.852083,1.45521 z"
       id="path886"
        />
  </g>
</svg>
